<?xml version="1.0" standalone="no"?>
<!DOCTYPE svg PUBLIC "-//W3C//DTD SVG 20010904//EN"
 "http://www.w3.org/TR/2001/REC-SVG-20010904/DTD/svg10.dtd">
<svg version="1.0" xmlns="http://www.w3.org/2000/svg"
 width="57.000000pt" height="42.000000pt" viewBox="0 0 57.000000 42.000000"
 preserveAspectRatio="xMidYMid meet">
<metadata>
Created by potrace 1.16, written by Peter Selinger 2001-2019
</metadata>
<g transform="translate(0.000000,42.000000) scale(0.100000,-0.100000)"
fill="#000000" stroke="none">
<path d="M193 404 c-3 -8 -2 -19 3 -24 5 -5 67 -11 138 -12 127 -3 129 -3 149
-30 18 -24 18 -30 7 -58 -7 -17 -18 -34 -24 -38 -6 -4 -92 -9 -191 -12 -151
-4 -180 -7 -180 -20 0 -13 29 -16 183 -20 178 -5 184 -6 203 -29 24 -30 24
-52 -2 -85 -18 -23 -27 -26 -87 -26 -74 0 -98 -10 -89 -34 8 -21 123 -22 172
-2 63 26 85 126 40 176 -16 18 -16 21 4 46 41 52 21 138 -40 170 -42 21 -277
20 -286 -2z"/>
<path d="M98 319 c-6 -4 -8 -14 -5 -23 6 -14 29 -16 171 -16 133 0 165 3 169
14 12 31 -19 37 -173 34 -84 -2 -156 -6 -162 -9z"/>
</g>
</svg>
