<svg xmlns="http://www.w3.org/2000/svg" xmlns:xlink="http://www.w3.org/1999/xlink" version="1.1" x="0px" y="0px" viewBox="0 0 48 48" enable-background="new 0 0 48 48" xml:space="preserve"><circle cx="12" cy="13" r="2"></circle><circle cx="25" cy="14" r="2"></circle><circle cx="37" cy="21.5" r="1.5"></circle><path d="M14,16h-4c-1.7,0-3,1.3-3,3v6h2v12h2v-9h2v9h2V25h2v-6C17,17.3,15.7,16,14,16z"></path><path d="M30,30l-2-10.5c-0.2-1.4-1.5-2.5-3-2.5s-2.7,1.1-3,2.5L20,30h2v7h2v-7h1h1v7h2v-7H30z"></path><path d="M38,24h-2c-1.7,0-3,1.3-3,3v1v2h2v7h4v-7h2v-2v-1C41,25.3,39.7,24,38,24z"></path></svg>