<svg version="1.1" id="Layer_1" xmlns="http://www.w3.org/2000/svg" xmlns:xlink="http://www.w3.org/1999/xlink" x="0px" y="0px"
	 width="100%" viewBox="0 0 528 400" enable-background="new 0 0 528 400" xml:space="preserve">
<path fill="#000000" opacity="1.000000" stroke="none" 
	d="
M123.293137,205.839172 
	C125.796623,213.277969 128.338562,215.627533 133.026947,214.839935 
	C136.345657,214.282440 139.078476,212.714584 139.777573,209.112961 
	C140.442612,205.686829 138.798813,203.528702 135.695358,202.002716 
	C132.170273,200.269440 129.194427,197.909866 130.103958,192.465775 
	C133.925980,193.452637 137.605698,194.428528 141.483429,194.065994 
	C143.281479,193.897858 144.038040,195.971848 144.049026,197.772842 
	C144.088608,204.261734 144.050507,210.751175 144.099930,217.239944 
	C144.120987,220.005524 142.607315,220.548508 140.221466,220.354752 
	C137.449707,220.129654 134.747528,219.112045 131.858749,220.184204 
	C127.621399,221.756866 126.093765,225.210770 125.752838,229.108658 
	C125.466972,232.377045 128.873123,232.568939 130.979614,233.539200 
	C133.844696,234.858826 136.902512,235.687119 140.112564,235.861511 
	C144.579727,236.104218 144.358383,239.378616 144.001740,242.413528 
	C143.547958,246.275085 140.868408,244.936646 138.702408,244.326950 
	C129.109711,241.626740 122.396919,233.720901 121.992485,223.854721 
	C121.758781,218.153702 120.155914,213.165634 117.203987,208.374832 
	C113.207756,201.889175 111.806992,194.515091 110.311752,187.158691 
	C108.010574,175.837112 105.444931,164.569321 102.906769,152.888809 
	C105.973663,153.302734 106.463600,155.600540 107.355019,157.374298 
	C111.885796,166.389755 113.871582,176.236282 115.878281,185.964874 
	C117.319916,192.954025 120.241211,199.165741 123.293137,205.839172 
z"/>
<path fill="#000000" opacity="1.000000" stroke="none" 
	d="
M303.613037,161.948273 
	C306.804382,163.191849 309.392303,163.635208 312.563263,162.481262 
	C318.264618,160.406448 323.016022,163.840408 323.276764,169.817184 
	C323.479553,174.465210 323.324066,179.128601 323.341064,183.785110 
	C323.348907,185.932495 322.604401,187.285568 320.159180,187.206467 
	C317.844543,187.131638 316.890717,185.888931 316.867645,183.727371 
	C316.830383,180.235123 316.808990,176.742676 316.789459,173.250259 
	C316.776306,170.904144 316.273132,168.664825 313.484924,168.556305 
	C310.417450,168.436874 310.336884,170.881943 310.333008,173.139725 
	C310.328430,175.800842 310.477325,178.472351 310.288544,181.120010 
	C310.119232,183.494110 311.565216,187.060333 307.216736,187.123734 
	C302.534607,187.192001 304.029205,183.389221 303.826691,180.870728 
	C303.614044,178.225922 303.792358,175.551743 303.733032,172.891891 
	C303.680267,170.527084 303.037811,168.373901 300.138275,168.587158 
	C297.509796,168.780472 297.289978,170.914764 297.300262,173.043945 
	C297.317139,176.536438 297.276062,180.029160 297.268036,183.521820 
	C297.263397,185.548370 296.814026,187.149231 294.302277,187.218658 
	C291.746490,187.289291 290.700836,186.058472 290.723175,183.586273 
	C290.775787,177.765686 290.813019,171.944061 290.757355,166.123810 
	C290.733154,163.595398 291.917328,162.165909 294.327789,162.551346 
	C297.397736,163.042206 300.234528,161.776031 303.613037,161.948273 
z"/>
<path fill="#000000" opacity="1.000000" stroke="none" 
	d="
M368.957764,230.396011 
	C361.296234,231.916763 356.404266,228.472946 355.106964,221.009613 
	C353.799225,213.486221 358.288513,206.257614 365.177002,205.864868 
	C369.403961,205.623886 371.310242,204.462296 370.911926,200.078369 
	C370.711243,197.869766 372.101837,196.779953 374.346222,196.798340 
	C376.120575,196.812897 377.245605,197.515182 377.248566,199.405701 
	C377.264496,209.502335 377.256073,219.599014 377.256073,229.255249 
	C374.295898,231.227646 371.675049,229.071304 368.957764,230.396011 
M370.532257,222.571823 
	C370.610443,219.913910 370.750122,217.255951 370.748108,214.598099 
	C370.746338,212.304398 369.463287,211.185623 367.209381,211.545166 
	C364.949432,211.905701 363.017548,213.026382 362.409668,215.367126 
	C361.679199,218.179977 361.552002,221.088074 363.935944,223.284622 
	C365.911774,225.105118 368.094391,225.220764 370.532257,222.571823 
z"/>
<path fill="#000000" opacity="1.000000" stroke="none" 
	d="
M299.208252,219.222931 
	C299.186584,222.175247 299.187469,224.667282 299.130890,227.158005 
	C299.079102,229.438629 297.843872,230.372086 295.598877,230.296539 
	C293.426025,230.223434 292.725189,228.983582 292.723785,227.065125 
	C292.717255,218.094543 292.719757,209.123978 292.711365,200.153397 
	C292.709290,197.911942 293.781982,196.835175 296.049225,196.774460 
	C298.508820,196.708588 299.219147,198.092239 299.206024,200.222168 
	C299.195831,201.871948 299.203979,203.521851 299.203979,205.120956 
	C301.708344,206.511414 304.036804,205.455719 306.278015,205.600479 
	C310.849365,205.895752 313.768677,207.861588 314.550781,212.597168 
	C315.370697,217.561646 315.005432,222.534164 314.822540,227.505569 
	C314.748169,229.526993 313.542969,230.355896 311.527924,230.356033 
	C309.462891,230.356186 308.497650,229.540497 308.471283,227.415405 
	C308.436310,224.595245 308.150635,221.778427 308.106110,218.958069 
	C308.051575,215.503159 308.124939,211.838959 303.330414,211.858063 
	C298.528076,211.877197 299.257324,215.657074 299.208252,219.222931 
z"/>
<path fill="#000000" opacity="1.000000" stroke="none" 
	d="
M215.411850,185.649963 
	C210.222153,188.506851 208.099670,187.921692 206.457581,183.331772 
	C203.775406,175.834671 201.198608,168.299271 198.650208,160.755402 
	C198.111511,159.160736 196.741440,157.104126 199.547211,156.253403 
	C201.854218,155.553894 203.857468,156.138840 204.757523,158.696701 
	C206.463364,163.544510 208.130707,168.405884 209.847839,173.249634 
	C210.116104,174.006378 210.562424,174.699997 211.209961,175.985916 
	C214.029160,171.703140 214.783432,167.125504 216.468979,162.952957 
	C217.151337,161.263779 217.636642,159.479507 218.464386,157.868393 
	C219.571838,155.712845 221.637695,155.480331 223.632874,156.206085 
	C226.010025,157.070801 224.857635,158.919724 224.343063,160.401459 
	C221.459366,168.705185 218.523148,176.990692 215.411850,185.649963 
z"/>
<path fill="#000000" opacity="1.000000" stroke="none" 
	d="
M266.867523,209.309021 
	C267.525116,210.713898 268.069366,211.757782 268.370697,212.867599 
	C270.183624,219.544586 269.102142,220.964066 262.325256,221.084488 
	C260.374390,221.119156 258.355286,220.612366 255.960175,221.871185 
	C258.887115,226.262772 263.046753,224.052078 266.734100,224.029526 
	C268.220123,227.927399 267.357452,230.162231 263.104828,230.797363 
	C257.946594,231.567719 253.469528,230.497284 250.189316,226.246506 
	C246.926788,222.018646 246.851074,215.482971 249.665085,210.693130 
	C252.201721,206.375366 256.060791,205.242081 260.735687,205.681656 
	C263.231873,205.916351 265.119843,207.079712 266.867523,209.309021 
M256.601746,215.022491 
	C258.442780,215.307480 260.292175,215.669983 262.146149,214.642578 
	C259.099945,211.204956 258.092804,211.240891 256.601746,215.022491 
z"/>
<path fill="#000000" opacity="1.000000" stroke="none" 
	d="
M329.520508,230.932190 
	C319.884155,229.236343 316.007324,218.820816 321.182800,210.435928 
	C323.876587,206.071640 329.487579,204.328629 334.329315,206.273224 
	C338.346649,207.886719 340.932251,213.228500 340.225311,217.885468 
	C339.859497,220.295258 338.292236,220.697342 336.401733,220.982346 
	C333.481628,221.422577 330.459473,220.535980 327.098663,221.732605 
	C330.148621,226.136703 334.200256,224.298920 338.029205,223.858383 
	C339.861755,227.367142 339.239471,229.565842 335.341400,230.547012 
	C333.548157,230.998383 331.764923,231.290924 329.520508,230.932190 
M329.184998,212.323059 
	C328.036102,212.844299 326.730225,213.246689 327.116089,215.086868 
	C329.314789,215.497162 331.467316,216.089203 333.201385,214.045410 
	C332.409912,212.267578 331.147247,212.172760 329.184998,212.323059 
z"/>
<path fill="#000000" opacity="1.000000" stroke="none" 
	d="
M266.672058,185.346069 
	C263.975372,181.487076 263.665863,177.765320 266.541199,174.499054 
	C269.282776,171.384735 273.702148,172.860382 277.558594,171.594589 
	C276.147369,167.687881 273.275024,168.000580 270.570984,168.679382 
	C268.272278,169.256409 266.620361,169.228531 266.038147,166.558044 
	C265.502472,164.100952 267.263123,163.418655 269.039581,162.756332 
	C278.017944,159.408783 284.139099,163.669724 284.231964,173.231216 
	C284.261597,176.283203 283.765228,179.251816 286.269257,182.115936 
	C288.162872,184.281876 285.670258,187.525345 283.649017,186.967972 
	C279.382904,185.791534 275.562195,187.710632 271.538696,187.368942 
	C269.816162,187.222641 268.286072,186.764877 266.672058,185.346069 
M274.681366,177.878723 
	C273.452850,178.184036 271.803284,177.986542 271.659637,179.795837 
	C271.566010,180.975784 272.541290,181.519012 273.602112,181.634338 
	C275.051514,181.791901 276.249176,181.233673 276.865173,179.882385 
	C277.564148,178.349045 276.828003,177.730011 274.681366,177.878723 
z"/>
<path fill="#000000" opacity="1.000000" stroke="none" 
	d="
M103.153404,187.842804 
	C103.505539,186.724075 103.758942,185.957687 104.305557,184.304474 
	C108.463837,189.687378 107.368484,195.095856 106.879234,200.314957 
	C106.570824,203.604843 105.641129,206.834717 105.299805,210.123642 
	C104.526596,217.574219 106.268135,224.186005 111.593025,229.846161 
	C114.334610,232.760376 117.032433,236.071136 116.429001,240.826538 
	C102.128242,232.989243 94.122887,224.517731 98.092255,207.457703 
	C99.596077,200.994385 102.340919,194.856522 103.153404,187.842804 
z"/>
<path fill="#000000" opacity="1.000000" stroke="none" 
	d="
M256.911011,164.039276 
	C260.050537,166.917313 259.346527,170.393005 259.431885,173.649231 
	C259.509491,176.611160 258.987366,179.658066 261.850952,181.841095 
	C263.276184,182.927582 262.360413,184.225800 261.737000,185.393478 
	C260.809296,187.131073 259.213928,187.827164 257.563538,187.007294 
	C255.387054,185.926056 253.561157,186.501572 251.422073,187.049789 
	C245.809433,188.488281 241.900772,186.540359 240.555740,182.058456 
	C239.081589,177.146301 241.273834,173.499054 246.356659,172.595734 
	C248.280045,172.253906 250.251038,172.179901 252.872330,171.916229 
	C251.937653,167.934586 249.232666,168.067917 246.517487,168.568558 
	C244.539642,168.933228 242.545319,169.924271 241.756775,166.959366 
	C240.969604,163.999573 242.871323,163.267380 245.143295,162.609436 
	C249.151337,161.448761 252.986526,161.388779 256.911011,164.039276 
M248.354279,181.270645 
	C251.118423,182.039154 252.705688,181.377930 252.370453,177.696686 
	C250.293961,178.328461 247.288956,176.711029 248.354279,181.270645 
z"/>
<path fill="#000000" opacity="1.000000" stroke="none" 
	d="
M356.367584,161.974701 
	C364.661407,162.558762 367.758850,166.114563 367.468506,173.777863 
	C367.371826,176.328903 366.477905,177.417267 363.928680,177.336899 
	C361.002838,177.244659 358.071899,177.315491 353.820465,177.315491 
	C357.562134,182.600800 361.797760,180.232361 365.281311,180.640289 
	C366.906372,185.377411 366.119629,186.779068 361.576294,187.293579 
	C354.116028,188.138428 348.206818,184.574066 346.854706,178.413666 
	C345.113434,170.480286 348.357910,164.652100 356.367584,161.974701 
M359.394043,171.756104 
	C362.282104,170.473221 360.013611,169.403534 359.054962,168.909943 
	C356.896423,167.798615 355.510132,168.761566 354.641052,171.385757 
	C356.283905,171.538940 357.529144,171.655045 359.394043,171.756104 
z"/>
<path fill="#000000" opacity="1.000000" stroke="none" 
	d="
M215.535797,229.914017 
	C208.982681,231.837585 204.492264,230.701279 201.268997,226.564514 
	C198.141495,222.550598 197.677170,215.961075 200.205612,211.473068 
	C202.696808,207.051163 207.363968,204.913437 212.992142,205.740829 
	C218.041626,206.483124 220.971039,209.705765 222.149796,214.423798 
	C223.838715,221.183838 221.734390,226.039246 215.535797,229.914017 
M215.655869,216.153000 
	C214.871246,213.218002 212.993210,211.513794 209.927628,211.840149 
	C207.099701,212.141220 205.686615,214.110123 205.318207,216.874313 
	C204.769379,220.991928 206.963501,224.582123 210.378052,224.540985 
	C215.437332,224.480042 215.986740,220.894669 215.655869,216.153000 
z"/>
<path fill="#000000" opacity="1.000000" stroke="none" 
	d="
M89.421753,218.083649 
	C89.167786,211.538757 85.336159,206.166199 85.551880,199.793945 
	C85.745575,194.072327 87.321869,188.950974 90.443146,184.363831 
	C94.057053,179.052704 98.764244,174.528580 101.704025,167.999054 
	C104.153419,171.550690 103.459579,174.610428 102.742844,177.551407 
	C102.358543,179.128326 101.593147,180.721176 100.624733,182.029190 
	C94.492332,190.312149 92.175880,199.541916 93.245338,209.744843 
	C93.449829,211.695786 93.330322,213.773376 92.865181,215.671204 
	C92.520226,217.078690 92.084091,219.156311 89.421753,218.083649 
z"/>
<path fill="#000000" opacity="1.000000" stroke="none" 
	d="
M237.528534,230.093719 
	C233.060501,231.138367 231.041275,229.313660 229.892944,225.452179 
	C228.056549,219.277069 225.816391,213.222061 223.681732,206.923950 
	C227.828384,204.972366 230.375870,205.404694 231.631516,209.777008 
	C232.453262,212.638428 233.649185,215.392395 235.147766,219.475891 
	C236.600479,215.611496 237.842468,212.854752 238.667801,209.978455 
	C239.784683,206.086136 242.091476,205.033447 246.780655,206.520081 
	C243.879425,214.481247 242.424164,222.728775 237.528534,230.093719 
z"/>
<path fill="#000000" opacity="1.000000" stroke="none" 
	d="
M152.113800,155.049164 
	C164.872025,191.937653 177.506485,228.450378 190.140945,264.963104 
	C189.417542,265.211456 188.694153,265.459778 187.970749,265.708099 
	C172.184921,220.170822 156.399078,174.633545 140.613235,129.096252 
	C141.219315,128.871475 141.825409,128.646698 142.431488,128.421921 
	C146.367142,136.873001 148.729431,145.952652 152.113800,155.049164 
z"/>
<path fill="#000000" opacity="1.000000" stroke="none" 
	d="
M341.434631,165.834213 
	C341.491241,167.777481 340.946747,168.635574 339.089783,168.422607 
	C337.668884,168.259628 336.104828,167.828354 334.791046,169.137512 
	C334.589386,171.255341 336.371704,171.288681 337.670288,171.774277 
	C341.096558,173.055496 343.231384,175.258163 343.305603,179.137070 
	C343.370361,182.522217 341.815765,184.971802 338.883728,186.329330 
	C335.424835,187.930771 331.726349,188.141022 328.369080,186.115616 
	C326.346893,184.895645 326.536163,182.803772 327.511810,180.733429 
	C330.278534,179.483017 333.775269,182.718964 336.380005,179.283096 
	C335.409882,176.481293 332.460999,176.593643 330.495728,175.336288 
	C327.664093,173.524689 326.374420,171.070969 327.294159,167.710800 
	C328.451080,163.483780 331.745972,162.030685 335.619934,161.885956 
	C338.134491,161.792023 341.283997,161.469193 341.434631,165.834213 
z"/>
<path fill="#000000" opacity="1.000000" stroke="none" 
	d="
M229.254120,155.747955 
	C230.301819,153.238449 232.219803,153.050659 233.998459,153.440231 
	C236.104111,153.901443 235.903229,155.960403 235.918213,157.563660 
	C235.995987,165.885956 236.022339,174.209229 235.983841,182.531784 
	C235.972595,184.963623 235.655487,187.333298 232.256912,187.200150 
	C229.146698,187.078308 229.000122,184.868652 229.006042,182.622223 
	C229.029282,173.802353 229.099365,164.982590 229.254120,155.747955 
z"/>
<path fill="#000000" opacity="1.000000" stroke="none" 
	d="
M90.901718,172.908417 
	C86.927826,176.558151 84.763802,180.696289 84.927284,185.913208 
	C79.847641,184.014343 78.249245,179.707428 80.526405,174.707108 
	C81.802017,171.906052 84.050789,169.919495 86.273468,167.897491 
	C90.559731,163.998230 95.149170,160.355148 97.491638,154.853241 
	C101.601753,156.331253 102.425911,158.769714 100.297752,162.865601 
	C98.166512,166.967422 94.406067,169.578110 90.901718,172.908417 
z"/>
<path fill="#000000" opacity="1.000000" stroke="none" 
	d="
M274.067169,206.249619 
	C278.036743,205.887115 281.631073,205.633713 285.226166,205.622726 
	C286.984344,205.617355 289.234131,205.556686 289.108612,208.272232 
	C289.000336,210.614883 288.150360,212.595413 285.176300,212.151596 
	C280.412720,211.440704 278.946442,213.750107 279.244843,218.164413 
	C279.456818,221.300140 279.244232,224.466797 279.173553,227.618576 
	C279.132141,229.463760 278.039825,230.257660 276.276093,230.283081 
	C274.675232,230.306137 272.953705,230.044174 272.965454,228.126083 
	C273.009857,220.899994 271.710938,213.618881 274.067169,206.249619 
z"/>
<path fill="#000000" opacity="1.000000" stroke="none" 
	d="
M343.906799,209.537766 
	C343.958130,206.287277 345.476044,205.264618 348.134155,205.598038 
	C350.702698,205.920212 350.670898,207.880432 350.652832,209.722855 
	C350.600708,215.043793 350.495819,220.364532 350.366425,225.684250 
	C350.315125,227.794724 350.746002,230.247070 347.369049,230.278183 
	C343.853516,230.310547 343.932617,227.806091 343.909088,225.447418 
	C343.857605,220.290573 343.892120,215.132858 343.906799,209.537766 
z"/>
<path fill="#000000" opacity="1.000000" stroke="none" 
	d="
M127.269791,160.372437 
	C132.357407,164.535202 133.376907,168.488251 130.305420,174.359787 
	C128.942886,169.098770 124.579269,169.468826 121.198921,167.934753 
	C118.053459,166.507278 116.423233,163.608932 115.343079,160.250748 
	C119.326118,157.878571 123.123100,159.018127 127.269791,160.372437 
z"/>
<path fill="#000000" opacity="1.000000" stroke="none" 
	d="
M94.525726,144.689209 
	C97.358635,147.774277 97.003258,151.651291 93.259293,154.888367 
	C90.166893,157.562057 86.939255,160.062988 84.416992,163.442505 
	C81.679832,159.161987 82.995110,153.778168 87.553818,149.984009 
	C89.708725,148.190491 92.001816,146.563004 94.525726,144.689209 
z"/>
<path fill="#000000" opacity="1.000000" stroke="none" 
	d="
M350.368134,202.161041 
	C348.553101,204.137955 346.845856,204.621780 345.049408,202.859955 
	C343.746613,201.582260 343.401489,200.045776 344.426300,198.432693 
	C345.308746,197.043686 346.726593,196.435104 348.240234,196.917343 
	C350.625427,197.677261 351.644928,199.326385 350.368134,202.161041 
z"/>
</svg>